<mxfile host="app.diagrams.net" modified="2021-05-17T07:36:51.668Z" agent="5.0 (Windows NT 10.0; Win64; x64) AppleWebKit/537.36 (KHTML, like Gecko) Chrome/90.0.4430.212 Safari/537.36 Edg/90.0.818.62" etag="MPgmI0mOX7xYwMTEPwoE" version="14.6.12" type="github">
  <diagram id="kgpKYQtTHZ0yAKxKKP6v" name="Page-1">
    <mxGraphModel dx="996" dy="616" grid="1" gridSize="10" guides="1" tooltips="1" connect="1" arrows="1" fold="1" page="1" pageScale="1" pageWidth="850" pageHeight="1100" math="0" shadow="0">
      <root>
        <mxCell id="0" />
        <mxCell id="1" parent="0" />
        <mxCell id="VScjr7sdxNT2rHwOYcjT-4" value="集成平台" style="shape=umlLifeline;perimeter=lifelinePerimeter;whiteSpace=wrap;html=1;container=1;collapsible=0;recursiveResize=0;outlineConnect=0;" vertex="1" parent="1">
          <mxGeometry x="110" y="60" width="100" height="300" as="geometry" />
        </mxCell>
        <mxCell id="VScjr7sdxNT2rHwOYcjT-16" value="&lt;font style=&quot;font-size: 15px&quot; color=&quot;#ff0000&quot;&gt;数据同步&lt;/font&gt;" style="html=1;points=[];perimeter=orthogonalPerimeter;align=center;" vertex="1" parent="VScjr7sdxNT2rHwOYcjT-4">
          <mxGeometry x="45" y="80" width="10" height="180" as="geometry" />
        </mxCell>
        <mxCell id="VScjr7sdxNT2rHwOYcjT-5" value="自定义函数" style="shape=umlLifeline;perimeter=lifelinePerimeter;whiteSpace=wrap;html=1;container=1;collapsible=0;recursiveResize=0;outlineConnect=0;" vertex="1" parent="1">
          <mxGeometry x="310" y="60" width="100" height="300" as="geometry" />
        </mxCell>
        <mxCell id="VScjr7sdxNT2rHwOYcjT-46" value="&lt;font color=&quot;#ff0000&quot; style=&quot;font-size: 16px&quot;&gt;处理同步请求&lt;/font&gt;" style="html=1;points=[];perimeter=orthogonalPerimeter;" vertex="1" parent="VScjr7sdxNT2rHwOYcjT-5">
          <mxGeometry x="45" y="100" width="10" height="130" as="geometry" />
        </mxCell>
        <mxCell id="VScjr7sdxNT2rHwOYcjT-10" value="第三方服务" style="shape=umlLifeline;perimeter=lifelinePerimeter;whiteSpace=wrap;html=1;container=1;collapsible=0;recursiveResize=0;outlineConnect=0;" vertex="1" parent="1">
          <mxGeometry x="495" y="60" width="100" height="300" as="geometry" />
        </mxCell>
        <mxCell id="VScjr7sdxNT2rHwOYcjT-51" value="&lt;font color=&quot;#ff0000&quot; style=&quot;font-size: 16px&quot;&gt;第三方接口&lt;/font&gt;" style="html=1;points=[];perimeter=orthogonalPerimeter;strokeColor=#000000;" vertex="1" parent="VScjr7sdxNT2rHwOYcjT-10">
          <mxGeometry x="40" y="120" width="15" height="80" as="geometry" />
        </mxCell>
        <mxCell id="VScjr7sdxNT2rHwOYcjT-27" value="集成平台" style="shape=umlLifeline;perimeter=lifelinePerimeter;whiteSpace=wrap;html=1;container=1;collapsible=0;recursiveResize=0;outlineConnect=0;" vertex="1" parent="1">
          <mxGeometry x="80" y="430" width="100" height="570" as="geometry" />
        </mxCell>
        <mxCell id="VScjr7sdxNT2rHwOYcjT-28" value="&lt;font style=&quot;font-size: 15px&quot; color=&quot;#ff0000&quot;&gt;数据同步&lt;/font&gt;" style="html=1;points=[];perimeter=orthogonalPerimeter;align=center;" vertex="1" parent="VScjr7sdxNT2rHwOYcjT-27">
          <mxGeometry x="45" y="80" width="10" height="390" as="geometry" />
        </mxCell>
        <mxCell id="VScjr7sdxNT2rHwOYcjT-62" value="" style="html=1;points=[];perimeter=orthogonalPerimeter;strokeColor=#000000;" vertex="1" parent="VScjr7sdxNT2rHwOYcjT-27">
          <mxGeometry x="55" y="280" width="10" height="40" as="geometry" />
        </mxCell>
        <mxCell id="VScjr7sdxNT2rHwOYcjT-63" value="阻塞一段时间" style="edgeStyle=orthogonalEdgeStyle;html=1;align=left;spacingLeft=2;endArrow=block;rounded=0;entryX=1;entryY=0;strokeColor=#000000;" edge="1" target="VScjr7sdxNT2rHwOYcjT-62" parent="VScjr7sdxNT2rHwOYcjT-27" source="VScjr7sdxNT2rHwOYcjT-28">
          <mxGeometry relative="1" as="geometry">
            <mxPoint x="70" y="260" as="sourcePoint" />
            <Array as="points">
              <mxPoint x="100" y="250" />
              <mxPoint x="100" y="280" />
            </Array>
          </mxGeometry>
        </mxCell>
        <mxCell id="VScjr7sdxNT2rHwOYcjT-29" value="自定义函数" style="shape=umlLifeline;perimeter=lifelinePerimeter;whiteSpace=wrap;html=1;container=1;collapsible=0;recursiveResize=0;outlineConnect=0;" vertex="1" parent="1">
          <mxGeometry x="280" y="430" width="100" height="570" as="geometry" />
        </mxCell>
        <mxCell id="VScjr7sdxNT2rHwOYcjT-30" value="&lt;font color=&quot;#ff0000&quot; style=&quot;font-size: 16px&quot;&gt;处理同步请求&lt;/font&gt;" style="html=1;points=[];perimeter=orthogonalPerimeter;align=center;" vertex="1" parent="VScjr7sdxNT2rHwOYcjT-29">
          <mxGeometry x="45" y="80" width="10" height="150" as="geometry" />
        </mxCell>
        <mxCell id="VScjr7sdxNT2rHwOYcjT-64" value="" style="html=1;points=[];perimeter=orthogonalPerimeter;strokeColor=#000000;" vertex="1" parent="VScjr7sdxNT2rHwOYcjT-29">
          <mxGeometry x="45" y="350" width="10" height="110" as="geometry" />
        </mxCell>
        <mxCell id="VScjr7sdxNT2rHwOYcjT-31" value="第三方服务" style="shape=umlLifeline;perimeter=lifelinePerimeter;whiteSpace=wrap;html=1;container=1;collapsible=0;recursiveResize=0;outlineConnect=0;" vertex="1" parent="1">
          <mxGeometry x="620" y="430" width="100" height="570" as="geometry" />
        </mxCell>
        <mxCell id="VScjr7sdxNT2rHwOYcjT-54" value="&lt;font style=&quot;font-size: 16px&quot; color=&quot;#ff0000&quot;&gt;第三方接口&lt;/font&gt;" style="html=1;points=[];perimeter=orthogonalPerimeter;strokeColor=#000000;" vertex="1" parent="VScjr7sdxNT2rHwOYcjT-31">
          <mxGeometry x="45" y="110" width="10" height="150" as="geometry" />
        </mxCell>
        <mxCell id="VScjr7sdxNT2rHwOYcjT-32" value="" style="edgeStyle=orthogonalEdgeStyle;rounded=0;orthogonalLoop=1;jettySize=auto;html=1;" edge="1" parent="1" source="VScjr7sdxNT2rHwOYcjT-28" target="VScjr7sdxNT2rHwOYcjT-30">
          <mxGeometry relative="1" as="geometry">
            <Array as="points">
              <mxPoint x="230" y="530" />
              <mxPoint x="230" y="530" />
            </Array>
          </mxGeometry>
        </mxCell>
        <mxCell id="VScjr7sdxNT2rHwOYcjT-58" value="发送请求，带reqId" style="edgeLabel;html=1;align=center;verticalAlign=middle;resizable=0;points=[];" vertex="1" connectable="0" parent="VScjr7sdxNT2rHwOYcjT-32">
          <mxGeometry x="-0.1263" y="-2" relative="1" as="geometry">
            <mxPoint x="12" y="-12" as="offset" />
          </mxGeometry>
        </mxCell>
        <mxCell id="VScjr7sdxNT2rHwOYcjT-36" value="补充幂等参数，返回超时" style="html=1;verticalAlign=bottom;endArrow=open;dashed=1;endSize=8;exitX=0.167;exitY=1.006;exitDx=0;exitDy=0;exitPerimeter=0;" edge="1" parent="1" source="VScjr7sdxNT2rHwOYcjT-30" target="VScjr7sdxNT2rHwOYcjT-27">
          <mxGeometry relative="1" as="geometry">
            <mxPoint x="308.5" y="650" as="sourcePoint" />
            <mxPoint x="150" y="650" as="targetPoint" />
            <Array as="points">
              <mxPoint x="230" y="660" />
            </Array>
          </mxGeometry>
        </mxCell>
        <mxCell id="VScjr7sdxNT2rHwOYcjT-40" value="请求，带reqid" style="html=1;verticalAlign=bottom;endArrow=block;entryX=0;entryY=0;" edge="1" target="VScjr7sdxNT2rHwOYcjT-39" parent="1" source="VScjr7sdxNT2rHwOYcjT-29">
          <mxGeometry x="-0.0272" relative="1" as="geometry">
            <mxPoint x="400" y="540" as="sourcePoint" />
            <mxPoint x="1" as="offset" />
          </mxGeometry>
        </mxCell>
        <mxCell id="VScjr7sdxNT2rHwOYcjT-42" value="异步代理服务" style="shape=umlLifeline;perimeter=lifelinePerimeter;whiteSpace=wrap;html=1;container=1;collapsible=0;recursiveResize=0;outlineConnect=0;strokeColor=#FF0000;" vertex="1" parent="1">
          <mxGeometry x="450" y="430" width="100" height="570" as="geometry" />
        </mxCell>
        <mxCell id="VScjr7sdxNT2rHwOYcjT-39" value="" style="html=1;points=[];perimeter=orthogonalPerimeter;strokeColor=#FF0000;" vertex="1" parent="VScjr7sdxNT2rHwOYcjT-42">
          <mxGeometry x="45" y="100" width="10" height="230" as="geometry" />
        </mxCell>
        <mxCell id="VScjr7sdxNT2rHwOYcjT-67" value="" style="html=1;points=[];perimeter=orthogonalPerimeter;strokeColor=#FF0000;" vertex="1" parent="VScjr7sdxNT2rHwOYcjT-42">
          <mxGeometry x="50" y="290" width="10" height="40" as="geometry" />
        </mxCell>
        <mxCell id="VScjr7sdxNT2rHwOYcjT-68" value="记录reqid和结果" style="edgeStyle=orthogonalEdgeStyle;html=1;align=left;spacingLeft=2;endArrow=block;rounded=0;entryX=1;entryY=0;strokeColor=#FF0000;" edge="1" target="VScjr7sdxNT2rHwOYcjT-67" parent="VScjr7sdxNT2rHwOYcjT-42">
          <mxGeometry relative="1" as="geometry">
            <mxPoint x="55" y="270" as="sourcePoint" />
            <Array as="points">
              <mxPoint x="85" y="270" />
            </Array>
          </mxGeometry>
        </mxCell>
        <mxCell id="VScjr7sdxNT2rHwOYcjT-72" value="" style="html=1;points=[];perimeter=orthogonalPerimeter;strokeColor=#FF0000;" vertex="1" parent="VScjr7sdxNT2rHwOYcjT-42">
          <mxGeometry x="45" y="360" width="10" height="80" as="geometry" />
        </mxCell>
        <mxCell id="VScjr7sdxNT2rHwOYcjT-47" value="dispatch" style="html=1;verticalAlign=bottom;endArrow=block;entryX=0;entryY=0;" edge="1" target="VScjr7sdxNT2rHwOYcjT-46" parent="1">
          <mxGeometry relative="1" as="geometry">
            <mxPoint x="164" y="160" as="sourcePoint" />
          </mxGeometry>
        </mxCell>
        <mxCell id="VScjr7sdxNT2rHwOYcjT-48" value="return" style="html=1;verticalAlign=bottom;endArrow=open;dashed=1;endSize=8;exitX=0;exitY=0.95;" edge="1" source="VScjr7sdxNT2rHwOYcjT-46" parent="1" target="VScjr7sdxNT2rHwOYcjT-16">
          <mxGeometry relative="1" as="geometry">
            <mxPoint x="280" y="256" as="targetPoint" />
          </mxGeometry>
        </mxCell>
        <mxCell id="VScjr7sdxNT2rHwOYcjT-52" value="dispatch" style="html=1;verticalAlign=bottom;endArrow=block;entryX=0;entryY=0;strokeColor=#000000;exitX=1.033;exitY=0.226;exitDx=0;exitDy=0;exitPerimeter=0;" edge="1" target="VScjr7sdxNT2rHwOYcjT-51" parent="1" source="VScjr7sdxNT2rHwOYcjT-46">
          <mxGeometry relative="1" as="geometry">
            <mxPoint x="410" y="180" as="sourcePoint" />
          </mxGeometry>
        </mxCell>
        <mxCell id="VScjr7sdxNT2rHwOYcjT-53" value="return" style="html=1;verticalAlign=bottom;endArrow=open;dashed=1;endSize=8;exitX=0;exitY=0.95;strokeColor=#000000;entryX=0.967;entryY=0.745;entryDx=0;entryDy=0;entryPerimeter=0;" edge="1" source="VScjr7sdxNT2rHwOYcjT-51" parent="1" target="VScjr7sdxNT2rHwOYcjT-46">
          <mxGeometry relative="1" as="geometry">
            <mxPoint x="470" y="256" as="targetPoint" />
          </mxGeometry>
        </mxCell>
        <mxCell id="VScjr7sdxNT2rHwOYcjT-55" value="请求" style="html=1;verticalAlign=bottom;endArrow=block;entryX=0;entryY=0;strokeColor=#000000;" edge="1" target="VScjr7sdxNT2rHwOYcjT-54" parent="1" source="VScjr7sdxNT2rHwOYcjT-42">
          <mxGeometry relative="1" as="geometry">
            <mxPoint x="510" y="540" as="sourcePoint" />
            <Array as="points">
              <mxPoint x="590" y="540" />
            </Array>
          </mxGeometry>
        </mxCell>
        <mxCell id="VScjr7sdxNT2rHwOYcjT-56" value="return" style="html=1;verticalAlign=bottom;endArrow=open;dashed=1;endSize=8;exitX=0;exitY=0.95;strokeColor=#000000;" edge="1" source="VScjr7sdxNT2rHwOYcjT-54" parent="1" target="VScjr7sdxNT2rHwOYcjT-42">
          <mxGeometry relative="1" as="geometry">
            <mxPoint x="500" y="635" as="targetPoint" />
          </mxGeometry>
        </mxCell>
        <mxCell id="VScjr7sdxNT2rHwOYcjT-57" value="超时返回" style="html=1;verticalAlign=bottom;endArrow=open;dashed=1;endSize=8;strokeColor=#000000;exitX=0.967;exitY=0.614;exitDx=0;exitDy=0;exitPerimeter=0;" edge="1" parent="1">
          <mxGeometry relative="1" as="geometry">
            <mxPoint x="504.6700000000001" y="634.3800000000001" as="sourcePoint" />
            <mxPoint x="329.5" y="634.3800000000001" as="targetPoint" />
          </mxGeometry>
        </mxCell>
        <mxCell id="VScjr7sdxNT2rHwOYcjT-65" value="请求带reqid和幂等参数" style="html=1;verticalAlign=bottom;endArrow=block;entryX=0;entryY=0;strokeColor=#000000;" edge="1" target="VScjr7sdxNT2rHwOYcjT-64" parent="1" source="VScjr7sdxNT2rHwOYcjT-27">
          <mxGeometry x="0.0281" y="10" relative="1" as="geometry">
            <mxPoint x="214.5" y="770" as="sourcePoint" />
            <Array as="points">
              <mxPoint x="230" y="780" />
            </Array>
            <mxPoint x="1" as="offset" />
          </mxGeometry>
        </mxCell>
        <mxCell id="VScjr7sdxNT2rHwOYcjT-66" value="return" style="html=1;verticalAlign=bottom;endArrow=open;dashed=1;endSize=8;exitX=0;exitY=0.95;strokeColor=#000000;" edge="1" source="VScjr7sdxNT2rHwOYcjT-64" parent="1">
          <mxGeometry relative="1" as="geometry">
            <mxPoint x="134" y="885" as="targetPoint" />
          </mxGeometry>
        </mxCell>
        <mxCell id="VScjr7sdxNT2rHwOYcjT-75" value="请求，带reqid" style="html=1;verticalAlign=bottom;endArrow=block;strokeColor=#000000;entryX=0.033;entryY=0.204;entryDx=0;entryDy=0;entryPerimeter=0;" edge="1" parent="1" source="VScjr7sdxNT2rHwOYcjT-64" target="VScjr7sdxNT2rHwOYcjT-72">
          <mxGeometry width="80" relative="1" as="geometry">
            <mxPoint x="360" y="810" as="sourcePoint" />
            <mxPoint x="440" y="810" as="targetPoint" />
          </mxGeometry>
        </mxCell>
        <mxCell id="VScjr7sdxNT2rHwOYcjT-74" value="返回结果" style="html=1;verticalAlign=bottom;endArrow=open;dashed=1;endSize=8;exitX=0;exitY=0.95;strokeColor=#000000;" edge="1" source="VScjr7sdxNT2rHwOYcjT-72" parent="1" target="VScjr7sdxNT2rHwOYcjT-29">
          <mxGeometry relative="1" as="geometry">
            <mxPoint x="425" y="846" as="targetPoint" />
          </mxGeometry>
        </mxCell>
        <mxCell id="VScjr7sdxNT2rHwOYcjT-76" value="异步代理请求超时返回时序图" style="text;html=1;align=center;verticalAlign=middle;resizable=0;points=[];autosize=1;strokeColor=none;" vertex="1" parent="1">
          <mxGeometry x="310" y="1010" width="170" height="20" as="geometry" />
        </mxCell>
        <mxCell id="VScjr7sdxNT2rHwOYcjT-77" value="普通数据同步调用自定义函数时序图" style="text;html=1;align=center;verticalAlign=middle;resizable=0;points=[];autosize=1;strokeColor=none;" vertex="1" parent="1">
          <mxGeometry x="255" y="360" width="210" height="20" as="geometry" />
        </mxCell>
      </root>
    </mxGraphModel>
  </diagram>
</mxfile>
